<?xml version="1.0" encoding="UTF-8" standalone="no"?>
<!-- Created with Inkscape (http://www.inkscape.org/) -->
<svg
   xmlns:svg="http://www.w3.org/2000/svg"
   xmlns="http://www.w3.org/2000/svg"
   xmlns:xlink="http://www.w3.org/1999/xlink"
   version="1.0"
   width="48"
   height="48"
   id="svg1">
  <defs
     id="defs3">
    <linearGradient
       id="linearGradient2806">
      <stop
         id="stop2808"
         style="stop-color:#000000;stop-opacity:1"
         offset="0" />
      <stop
         id="stop2810"
         style="stop-color:#000000;stop-opacity:0"
         offset="1" />
    </linearGradient>
    <linearGradient
       id="linearGradient2796">
      <stop
         id="stop2798"
         style="stop-color:#ffffff;stop-opacity:1"
         offset="0" />
      <stop
         id="stop2800"
         style="stop-color:#dfdfdf;stop-opacity:1"
         offset="1" />
    </linearGradient>
    <linearGradient
       id="linearGradient2788">
      <stop
         id="stop2790"
         style="stop-color:#ffffff;stop-opacity:1"
         offset="0" />
      <stop
         id="stop2792"
         style="stop-color:#ffffff;stop-opacity:0"
         offset="1" />
    </linearGradient>
    <linearGradient
       id="linearGradient2778">
      <stop
         id="stop2780"
         style="stop-color:#ff7802;stop-opacity:1"
         offset="0" />
      <stop
         id="stop2782"
         style="stop-color:#ff8700;stop-opacity:1"
         offset="1" />
    </linearGradient>
    <radialGradient
       cx="30.323671"
       cy="13.380429"
       r="29.755747"
       fx="30.323671"
       fy="13.380429"
       id="radialGradient2784"
       xlink:href="#linearGradient2778"
       gradientUnits="userSpaceOnUse"
       gradientTransform="matrix(1.53192,0,0,1.53192,-16.1297,-7.1173)" />
    <linearGradient
       x1="-0.36309087"
       y1="29.207693"
       x2="59.148403"
       y2="29.207693"
       id="linearGradient2794"
       xlink:href="#linearGradient2788"
       gradientUnits="userSpaceOnUse" />
    <radialGradient
       cx="31.760437"
       cy="22.226139"
       r="18.624397"
       fx="31.760437"
       fy="22.226139"
       id="radialGradient2802"
       xlink:href="#linearGradient2796"
       gradientUnits="userSpaceOnUse"
       gradientTransform="matrix(1.31653,0,0,1.31653,-10.0531,-9.28035)" />
    <radialGradient
       cx="25.25"
       cy="39.75"
       r="17.25"
       fx="25.25"
       fy="39.75"
       id="radialGradient2812"
       xlink:href="#linearGradient2806"
       gradientUnits="userSpaceOnUse"
       gradientTransform="matrix(1,0,0,0.333333,0,26.5)" />
    <radialGradient
       cx="25.25"
       cy="39.75"
       r="17.25"
       fx="25.25"
       fy="39.75"
       id="rg3"
       xlink:href="#lg1"
       gradientUnits="userSpaceOnUse"
       gradientTransform="matrix(1,0,0,0.333,0,26.5)" />
    <radialGradient
       cx="31.76"
       cy="22.226"
       r="18.624001"
       fx="31.76"
       fy="22.226"
       id="rg2"
       xlink:href="#lg2"
       gradientUnits="userSpaceOnUse"
       gradientTransform="matrix(1.317,0,0,1.317,-10.053,-9.28)" />
    <radialGradient
       cx="30.323999"
       cy="13.38"
       r="29.756001"
       fx="30.323999"
       fy="13.38"
       id="rg1"
       xlink:href="#lg4"
       gradientUnits="userSpaceOnUse"
       gradientTransform="matrix(1.532,0,0,1.532,-16.1297,-7.117)" />
    <linearGradient
       x1="-0.36300001"
       y1="29.208"
       x2="59.147999"
       y2="29.208"
       id="lg5"
       xlink:href="#lg3"
       gradientUnits="userSpaceOnUse" />
    <linearGradient
       id="lg4">
      <stop
         id="stop2421"
         style="stop-color:#f6ee00;stop-opacity:1"
         offset="0" />
      <stop
         id="stop2423"
         style="stop-color:#ffbb01;stop-opacity:1"
         offset="1" />
    </linearGradient>
    <linearGradient
       id="lg3">
      <stop
         id="stop2416"
         style="stop-color:#ffffff;stop-opacity:1"
         offset="0" />
      <stop
         id="stop2418"
         style="stop-color:#ffffff;stop-opacity:0"
         offset="1" />
    </linearGradient>
    <linearGradient
       id="lg2">
      <stop
         id="stop2411"
         style="stop-color:#ffffff;stop-opacity:1"
         offset="0" />
      <stop
         id="stop2413"
         style="stop-color:#dfdfdf;stop-opacity:1"
         offset="1" />
    </linearGradient>
    <linearGradient
       id="lg1">
      <stop
         id="stop2406"
         style="stop-color:#000000;stop-opacity:1"
         offset="0" />
      <stop
         id="stop2408"
         style="stop-color:#000000;stop-opacity:0"
         offset="1" />
    </linearGradient>
  </defs>
  <path
     d="M 42.5,39.75 A 17.25,5.75 0 1 1 8,39.75 A 17.25,5.75 0 1 1 42.5,39.75 z"
     transform="matrix(1.15942,0,0,1.50725,-3.77536,-22.163)"
     id="path2804"
     style="opacity:0.64433001;fill:url(#radialGradient2812) #000000;fill-opacity:1;fill-rule:nonzero;stroke:none;stroke-width:1;stroke-linecap:butt;stroke-linejoin:miter;marker:none;stroke-miterlimit:4;stroke-dasharray:none;stroke-dashoffset:0;stroke-opacity:1;visibility:visible;display:inline;overflow:visible" />
  <path
     d="M 58.403591,29.207693 A 29.010935,29.010935 0 1 1 0.3817215,29.207693 A 29.010935,29.010935 0 1 1 58.403591,29.207693 z"
     transform="matrix(0.67131,0,0,0.67131,5.22237,3.41837)"
     id="path907"
     style="fill:url(#radialGradient2784) #000000;fill-opacity:1;fill-rule:evenodd;stroke:#d65d19;stroke-width:1.48961997;stroke-linecap:butt;stroke-linejoin:miter;stroke-miterlimit:4;stroke-dasharray:none;stroke-opacity:1" />
  <path
     d="M 50.384842,29.319231 A 18.624397,18.624397 0 1 1 13.136047,29.319231 A 18.624397,18.624397 0 1 1 50.384842,29.319231 z"
     transform="matrix(0.780964,0,0,0.780964,0.172888,-0.147684)"
     id="path2159"
     style="fill:url(#radialGradient2802) #000000;fill-opacity:1;fill-rule:evenodd;stroke:none;stroke-width:1pt;stroke-linecap:butt;stroke-linejoin:miter;stroke-opacity:1" />
  <path
     d="M 23.270741,31.644037 C 23.270738,31.139201 23.454793,30.697468 23.822909,30.318838 C 24.201533,29.929696 24.643266,29.735123 25.148108,29.73512 C 25.663458,29.735123 26.110449,29.924437 26.489083,30.303061 C 26.867705,30.681694 27.057018,31.128685 27.057027,31.644037 C 27.057018,32.148877 26.862445,32.59061 26.473307,32.969238 C 26.094673,33.337348 25.65294,33.521403 25.148108,33.521403 C 24.664301,33.521403 24.227826,33.33209 23.838685,32.953462 C 23.460053,32.564314 23.270738,32.127843 23.270741,31.644037"
     id="text1299"
     style="font-size:19.83370018px;font-style:normal;font-variant:normal;font-weight:normal;font-stretch:normal;line-height:100%;text-anchor:start;fill:#d65d19;fill-opacity:1;stroke:none;stroke-width:1px;stroke-linecap:butt;stroke-linejoin:miter;stroke-opacity:1;font-family:Dutch801 SWM" />
  <path
     d="M 58.403591,29.207693 A 29.010935,29.010935 0 1 1 0.3817215,29.207693 A 29.010935,29.010935 0 1 1 58.403591,29.207693 z"
     transform="matrix(0.629301,0,0,0.629301,6.45712,4.64535)"
     id="path2786"
     style="opacity:0.37628904;fill:none;fill-opacity:1;fill-rule:evenodd;stroke:url(#linearGradient2794) #000000;stroke-width:1.58905995;stroke-linecap:butt;stroke-linejoin:miter;stroke-miterlimit:4;stroke-dasharray:none;stroke-opacity:1" />
  <path
     d="M 24.398994,27.318628 C 24.389249,26.051308 24.422656,25.079443 24.61961,24.172828 C 24.820287,23.249076 25.295322,22.017738 26.118951,20.710101 C 26.942577,19.402463 27.414881,18.700879 27.631321,18.092312 C 27.847736,17.48377 28.042037,16.867672 28.042048,16.244013 C 28.042037,14.966568 27.733435,14.120598 26.921841,13.366172 C 26.110229,12.611787 25.364316,12.401251 24.185995,12.40123 C 23.139922,12.401251 22.588046,12.694962 22.105025,12.961635 C 21.616313,13.23145 21.079391,13.603662 21.079394,14.086464 C 21.079391,14.458628 21.280627,14.887224 21.641341,15.43038 C 22.00205,15.973569 22.182406,16.354677 22.182411,16.636306 C 22.182406,16.998436 21.960654,17.302712 21.684112,17.549138 C 21.406822,17.795591 20.976988,17.97702 20.580208,17.977006 C 20.075209,17.97702 19.615302,17.710092 19.200484,17.292639 C 18.785659,16.875215 18.526073,16.294324 18.526073,15.54996 C 18.526073,14.413338 19.135314,13.378358 20.301621,12.503229 C 21.467923,11.628135 22.949925,11.19058 24.945877,11.190559 C 27.42276,11.19058 29.119153,11.82321 30.28547,13.028628 C 31.151165,13.915429 31.615325,14.896156 31.615339,15.972427 C 31.615325,16.706731 31.447948,17.461138 31.057186,18.235648 C 30.666403,19.010186 29.983244,19.920502 28.889096,20.966601 C 27.14564,22.616245 26.43851,23.43343 26.047746,24.427639 C 25.757985,25.164871 25.469737,26.080358 25.479483,27.318628 L 24.398994,27.318628 z"
     id="path2439"
     style="fill:#d65d19;fill-opacity:1" />
</svg>
